<mxfile host="Electron" agent="Mozilla/5.0 (Windows NT 10.0; Win64; x64) AppleWebKit/537.36 (KHTML, like Gecko) draw.io/25.0.2 Chrome/128.0.6613.186 Electron/32.2.5 Safari/537.36" version="25.0.2">
  <diagram id="C5RBs43oDa-KdzZeNtuy" name="Page-1">
    <mxGraphModel dx="794" dy="557" grid="1" gridSize="10" guides="1" tooltips="1" connect="1" arrows="1" fold="1" page="1" pageScale="1" pageWidth="827" pageHeight="1169" math="0" shadow="0">
      <root>
        <mxCell id="WIyWlLk6GJQsqaUBKTNV-0" />
        <mxCell id="WIyWlLk6GJQsqaUBKTNV-1" parent="WIyWlLk6GJQsqaUBKTNV-0" />
        <mxCell id="Ww7IUzs-hGGs2XxAr3mc-7" style="edgeStyle=orthogonalEdgeStyle;rounded=0;orthogonalLoop=1;jettySize=auto;html=1;exitX=0.5;exitY=1;exitDx=0;exitDy=0;exitPerimeter=0;entryX=0.5;entryY=0;entryDx=0;entryDy=0;" edge="1" parent="WIyWlLk6GJQsqaUBKTNV-1" source="Ww7IUzs-hGGs2XxAr3mc-1" target="Ww7IUzs-hGGs2XxAr3mc-2">
          <mxGeometry relative="1" as="geometry" />
        </mxCell>
        <mxCell id="Ww7IUzs-hGGs2XxAr3mc-1" value="start" style="strokeWidth=2;html=1;shape=mxgraph.flowchart.start_1;whiteSpace=wrap;" vertex="1" parent="WIyWlLk6GJQsqaUBKTNV-1">
          <mxGeometry x="364" y="30" width="100" height="60" as="geometry" />
        </mxCell>
        <mxCell id="Ww7IUzs-hGGs2XxAr3mc-2" value="Input A,B" style="shape=parallelogram;html=1;strokeWidth=2;perimeter=parallelogramPerimeter;whiteSpace=wrap;rounded=1;arcSize=12;size=0.23;" vertex="1" parent="WIyWlLk6GJQsqaUBKTNV-1">
          <mxGeometry x="364" y="130" width="100" height="60" as="geometry" />
        </mxCell>
        <mxCell id="Ww7IUzs-hGGs2XxAr3mc-6" style="edgeStyle=orthogonalEdgeStyle;rounded=0;orthogonalLoop=1;jettySize=auto;html=1;exitX=1;exitY=0.5;exitDx=0;exitDy=0;exitPerimeter=0;" edge="1" parent="WIyWlLk6GJQsqaUBKTNV-1" source="Ww7IUzs-hGGs2XxAr3mc-3" target="Ww7IUzs-hGGs2XxAr3mc-4">
          <mxGeometry relative="1" as="geometry" />
        </mxCell>
        <mxCell id="Ww7IUzs-hGGs2XxAr3mc-20" style="edgeStyle=orthogonalEdgeStyle;rounded=0;orthogonalLoop=1;jettySize=auto;html=1;exitX=0.5;exitY=1;exitDx=0;exitDy=0;exitPerimeter=0;" edge="1" parent="WIyWlLk6GJQsqaUBKTNV-1" source="Ww7IUzs-hGGs2XxAr3mc-3" target="Ww7IUzs-hGGs2XxAr3mc-19">
          <mxGeometry relative="1" as="geometry" />
        </mxCell>
        <mxCell id="Ww7IUzs-hGGs2XxAr3mc-3" value="A=0" style="strokeWidth=2;html=1;shape=mxgraph.flowchart.decision;whiteSpace=wrap;" vertex="1" parent="WIyWlLk6GJQsqaUBKTNV-1">
          <mxGeometry x="364" y="230" width="100" height="100" as="geometry" />
        </mxCell>
        <mxCell id="Ww7IUzs-hGGs2XxAr3mc-4" value="Kiểm Tra B" style="strokeWidth=2;html=1;shape=mxgraph.flowchart.display;whiteSpace=wrap;" vertex="1" parent="WIyWlLk6GJQsqaUBKTNV-1">
          <mxGeometry x="500" y="250" width="100" height="60" as="geometry" />
        </mxCell>
        <mxCell id="Ww7IUzs-hGGs2XxAr3mc-13" style="edgeStyle=orthogonalEdgeStyle;rounded=0;orthogonalLoop=1;jettySize=auto;html=1;exitX=1;exitY=0.5;exitDx=0;exitDy=0;exitPerimeter=0;entryX=0;entryY=0.5;entryDx=0;entryDy=0;" edge="1" parent="WIyWlLk6GJQsqaUBKTNV-1" source="Ww7IUzs-hGGs2XxAr3mc-5" target="Ww7IUzs-hGGs2XxAr3mc-12">
          <mxGeometry relative="1" as="geometry" />
        </mxCell>
        <mxCell id="Ww7IUzs-hGGs2XxAr3mc-18" style="edgeStyle=orthogonalEdgeStyle;rounded=0;orthogonalLoop=1;jettySize=auto;html=1;exitX=0.5;exitY=1;exitDx=0;exitDy=0;exitPerimeter=0;entryX=0.5;entryY=0;entryDx=0;entryDy=0;" edge="1" parent="WIyWlLk6GJQsqaUBKTNV-1" source="Ww7IUzs-hGGs2XxAr3mc-5" target="Ww7IUzs-hGGs2XxAr3mc-14">
          <mxGeometry relative="1" as="geometry" />
        </mxCell>
        <mxCell id="Ww7IUzs-hGGs2XxAr3mc-5" value="B=0" style="strokeWidth=2;html=1;shape=mxgraph.flowchart.decision;whiteSpace=wrap;" vertex="1" parent="WIyWlLk6GJQsqaUBKTNV-1">
          <mxGeometry x="500" y="350" width="100" height="100" as="geometry" />
        </mxCell>
        <mxCell id="Ww7IUzs-hGGs2XxAr3mc-8" style="edgeStyle=orthogonalEdgeStyle;rounded=0;orthogonalLoop=1;jettySize=auto;html=1;exitX=0.5;exitY=1;exitDx=0;exitDy=0;entryX=0.5;entryY=0;entryDx=0;entryDy=0;entryPerimeter=0;" edge="1" parent="WIyWlLk6GJQsqaUBKTNV-1" source="Ww7IUzs-hGGs2XxAr3mc-2" target="Ww7IUzs-hGGs2XxAr3mc-3">
          <mxGeometry relative="1" as="geometry" />
        </mxCell>
        <mxCell id="Ww7IUzs-hGGs2XxAr3mc-11" style="edgeStyle=orthogonalEdgeStyle;rounded=0;orthogonalLoop=1;jettySize=auto;html=1;exitX=0.5;exitY=1;exitDx=0;exitDy=0;exitPerimeter=0;entryX=0.5;entryY=0;entryDx=0;entryDy=0;entryPerimeter=0;" edge="1" parent="WIyWlLk6GJQsqaUBKTNV-1" source="Ww7IUzs-hGGs2XxAr3mc-4" target="Ww7IUzs-hGGs2XxAr3mc-5">
          <mxGeometry relative="1" as="geometry" />
        </mxCell>
        <mxCell id="Ww7IUzs-hGGs2XxAr3mc-12" value="&#xa;Display: Infinite solutions&#xa;&#xa;" style="shape=parallelogram;html=1;strokeWidth=2;perimeter=parallelogramPerimeter;whiteSpace=wrap;rounded=1;arcSize=12;size=0.23;" vertex="1" parent="WIyWlLk6GJQsqaUBKTNV-1">
          <mxGeometry x="620" y="370" width="130" height="60" as="geometry" />
        </mxCell>
        <mxCell id="Ww7IUzs-hGGs2XxAr3mc-14" value="Display: No solution" style="shape=parallelogram;html=1;strokeWidth=2;perimeter=parallelogramPerimeter;whiteSpace=wrap;rounded=1;arcSize=12;size=0.23;" vertex="1" parent="WIyWlLk6GJQsqaUBKTNV-1">
          <mxGeometry x="483" y="480" width="134" height="70" as="geometry" />
        </mxCell>
        <mxCell id="Ww7IUzs-hGGs2XxAr3mc-17" value="đúng" style="text;html=1;align=center;verticalAlign=middle;resizable=0;points=[];autosize=1;strokeColor=none;fillColor=none;" vertex="1" parent="WIyWlLk6GJQsqaUBKTNV-1">
          <mxGeometry x="450" y="238" width="50" height="30" as="geometry" />
        </mxCell>
        <mxCell id="Ww7IUzs-hGGs2XxAr3mc-22" style="edgeStyle=orthogonalEdgeStyle;rounded=0;orthogonalLoop=1;jettySize=auto;html=1;exitX=0.5;exitY=1;exitDx=0;exitDy=0;entryX=0.5;entryY=0;entryDx=0;entryDy=0;" edge="1" parent="WIyWlLk6GJQsqaUBKTNV-1" source="Ww7IUzs-hGGs2XxAr3mc-19" target="Ww7IUzs-hGGs2XxAr3mc-21">
          <mxGeometry relative="1" as="geometry" />
        </mxCell>
        <mxCell id="Ww7IUzs-hGGs2XxAr3mc-19" value="X = -B/A" style="rounded=1;whiteSpace=wrap;html=1;absoluteArcSize=1;arcSize=14;strokeWidth=2;" vertex="1" parent="WIyWlLk6GJQsqaUBKTNV-1">
          <mxGeometry x="344" y="370" width="140" height="50" as="geometry" />
        </mxCell>
        <mxCell id="Ww7IUzs-hGGs2XxAr3mc-21" value="Display X" style="shape=parallelogram;html=1;strokeWidth=2;perimeter=parallelogramPerimeter;whiteSpace=wrap;rounded=1;arcSize=12;size=0.23;" vertex="1" parent="WIyWlLk6GJQsqaUBKTNV-1">
          <mxGeometry x="364" y="450" width="100" height="60" as="geometry" />
        </mxCell>
        <mxCell id="Ww7IUzs-hGGs2XxAr3mc-23" value="End" style="strokeWidth=2;html=1;shape=mxgraph.flowchart.start_1;whiteSpace=wrap;" vertex="1" parent="WIyWlLk6GJQsqaUBKTNV-1">
          <mxGeometry x="363" y="550" width="100" height="60" as="geometry" />
        </mxCell>
        <mxCell id="Ww7IUzs-hGGs2XxAr3mc-24" style="edgeStyle=orthogonalEdgeStyle;rounded=0;orthogonalLoop=1;jettySize=auto;html=1;exitX=0.5;exitY=1;exitDx=0;exitDy=0;entryX=0.5;entryY=0;entryDx=0;entryDy=0;entryPerimeter=0;" edge="1" parent="WIyWlLk6GJQsqaUBKTNV-1" source="Ww7IUzs-hGGs2XxAr3mc-21" target="Ww7IUzs-hGGs2XxAr3mc-23">
          <mxGeometry relative="1" as="geometry" />
        </mxCell>
        <mxCell id="Ww7IUzs-hGGs2XxAr3mc-25" value="sai" style="text;html=1;align=center;verticalAlign=middle;resizable=0;points=[];autosize=1;strokeColor=none;fillColor=none;" vertex="1" parent="WIyWlLk6GJQsqaUBKTNV-1">
          <mxGeometry x="420" y="328" width="40" height="30" as="geometry" />
        </mxCell>
      </root>
    </mxGraphModel>
  </diagram>
</mxfile>
